
<svg xmlns="http://www.w3.org/2000/svg" xmlns:xlink="http://www.w3.org/1999/xlink" version="1.1"  width="1358" height="974">
<defs id="dmw_defs" >
<svg id="fk_sym" viewBox="0 0 48.665 48.665" style="enable-background:new 0 0 48.665 48.665;" >
<g>
<path d="M40.332,31.592c-2.377,0-4.515,1-6.033,2.598l-17.737-8.686c0.061-0.406,0.103-0.82,0.103-1.246    c0-0.414-0.04-0.818-0.098-1.215l17.711-8.589c1.519,1.609,3.666,2.619,6.054,2.619c4.603,0,8.333-3.731,8.333-8.333    c0-4.603-3.73-8.333-8.333-8.333s-8.333,3.73-8.333,8.333c0,0.414,0.04,0.817,0.098,1.215l-17.709,8.589    c-1.519-1.609-3.666-2.619-6.054-2.619C3.73,15.925,0,19.656,0,24.258c0,4.603,3.73,8.333,8.333,8.333    c2.377,0,4.515-1,6.033-2.596l17.736,8.685c-0.062,0.406-0.104,0.82-0.104,1.245c0,4.604,3.73,8.333,8.333,8.333    s8.333-3.729,8.333-8.333C48.665,35.322,44.935,31.592,40.332,31.592z" fill="#13bf3b"/>
</g>
</svg>
<svg id="pk_sym" viewBox="0 0 480.509 480.509" style="enable-background:new 0 0 480.509 480.509;" >
<g>
<path d="M418.119,331.046c4.094,4.374,7.766,8.186,10.996,11.416c3.237,3.238,6.714,6.376,10.427,9.422   c3.71,3.042,6.427,4.568,8.135,4.568c3.241,0,9.517-4.661,18.843-13.99c9.328-9.321,13.989-15.604,13.989-18.842   c0-1.523-2.714-5.421-8.138-11.704c-5.421-6.276-12.364-13.702-20.838-22.271c-8.473-8.565-16.703-16.744-24.694-24.55   c-8.001-7.81-15.8-15.373-23.417-22.703c-7.611-7.327-11.992-11.56-13.135-12.703c-1.902-1.902-4.093-2.853-6.563-2.853   c-3.237,0-9.521,4.661-18.843,13.988c-9.328,9.322-13.989,15.605-13.989,18.843c0,1.711,1.522,4.421,4.568,8.138   c3.046,3.71,6.188,7.187,9.421,10.424c3.23,3.23,7.047,6.899,11.42,10.992c4.377,4.093,6.848,6.423,7.423,6.995l-27.408,27.404   L254.954,222.268c24.94-33.498,37.408-68.236,37.408-104.211c0-31.024-9.761-56.293-29.263-75.801   c-19.512-19.511-44.778-29.265-75.805-29.265c-30.454,0-60.244,9.042-89.363,27.119c-29.121,18.083-52.727,41.686-70.808,70.808   C9.042,140.038,0,169.828,0,200.28c0,31.029,9.753,56.286,29.265,75.803c19.511,19.517,44.777,29.27,75.801,29.27   c35.976,0,70.71-12.467,104.212-37.407l191.574,191.579c5.332,5.328,11.796,7.994,19.417,7.994c7.991,0,15.704-3.72,23.12-11.14   c7.426-7.426,11.143-15.129,11.143-23.127c0-7.617-2.666-14.092-7.994-19.417l-62.811-62.811l27.405-27.404   C411.699,324.195,414.033,326.666,418.119,331.046z M221.556,161.458c-10.656,10.657-23.601,15.987-38.828,15.987   c-7.996,0-15.896-1.812-23.7-5.43c3.617,7.808,5.426,15.706,5.426,23.7c0,15.229-5.327,28.171-15.987,38.828   c-10.66,10.655-23.606,15.986-38.831,15.986c-15.227,0-28.168-5.325-38.828-15.986c-10.657-10.657-15.987-23.599-15.987-38.828   c0-15.227,5.327-28.171,15.987-38.828C81.464,146.23,94.409,140.9,109.636,140.9c7.992,0,15.893,1.809,23.695,5.424   c-3.616-7.804-5.424-15.706-5.424-23.699c0-15.227,5.327-28.171,15.987-38.828c10.66-10.657,23.604-15.987,38.831-15.987   c15.227,0,28.171,5.327,38.828,15.987c10.657,10.66,15.987,23.601,15.987,38.828C237.539,137.852,232.209,150.797,221.556,161.458z   " fill="#ff8345"/>
</g>
</svg>
<svg id="uk_sym" viewBox="0 0 490 490" style="enable-background:new 0 0 490 490;" >
<g>
	<polygon points="236.99,11.41 0,246.348 236.99,478.678 236.99,350.609 129.864,245 236.99,139.391  " fill="#0064fb"/>
<polygon points="253.01,478.59 490,243.651 253.01,11.322 253.01,139.391 360.136,245 253.01,350.609  " fill="#0064fb"/>
</g>
</svg>
<svg id="link_sym" viewBox="0 0 1000 900" style="enable-background:new 0 0 1000 900;" >
<g>
<path fill="black" d="M660.224 422.656c6.976 16.192-0.512 35.008-16.768 42.048-16.128 6.976-34.944-0.448-41.984-16.768-8.448-19.776-20.736-37.696-36.224-53.248-64.64-64.64-177.344-64.64-241.92 0l-145.216 145.28c-66.688 66.688-66.688 175.232 0 241.984 66.688 66.688 175.104 66.752 241.92 0l92.8-92.864c12.48-12.48 32.768-12.48 45.248 0s12.48 32.768 0 45.248l-92.8 92.864c-91.648 91.648-240.832 91.52-332.416 0-91.712-91.648-91.712-240.832 0-332.48l145.216-145.28c44.352-44.416 103.424-68.864 166.272-68.864s121.792 24.448 166.208 68.864c21.248 21.312 38.016 45.952 49.664 73.216zM891.136 401.344l-145.216 145.216c-88.768 88.832-243.712 88.832-332.416 0-21.312-21.312-38.080-45.952-49.728-73.216-7.040-16.256 0.448-35.072 16.704-42.048 16.064-6.784 35.008 0.512 41.984 16.768 8.512 19.776 20.8 37.696 36.288 53.248 64.64 64.64 177.344 64.64 241.92 0l145.216-145.216c66.688-66.688 66.688-175.232 0-241.984-66.752-66.624-175.168-66.688-241.92 0l-92.8 92.864c-12.48 12.48-32.768 12.48-45.248 0s-12.48-32.768 0-45.248l92.8-92.864c45.824-45.824 105.984-68.736 166.208-68.736s120.448 22.912 166.272 68.736c91.584 91.648 91.584 240.768-0.064 332.48z" />
</g>
</svg>
<clipPath clipPathUnits="userSpaceOnUse" id="clipPath1_0_">
<rect x="0" y="0" width="144" height="83" />
</clipPath>
<clipPath clipPathUnits="userSpaceOnUse" id="clipPath22_0_">
<rect x="0" y="0" width="226" height="269" />
</clipPath>
<clipPath clipPathUnits="userSpaceOnUse" id="clipPath5_0_">
<rect x="0" y="0" width="222" height="138" />
</clipPath>
<clipPath clipPathUnits="userSpaceOnUse" id="clipPath19_0_">
<rect x="0" y="0" width="156" height="91" />
</clipPath>
<clipPath clipPathUnits="userSpaceOnUse" id="clipPath6_0_">
<rect x="0" y="0" width="123" height="57" />
</clipPath>
<clipPath clipPathUnits="userSpaceOnUse" id="clipPath21_0_">
<rect x="0" y="0" width="170" height="102" />
</clipPath>
<clipPath clipPathUnits="userSpaceOnUse" id="clipPath8_0_">
<rect x="0" y="0" width="140" height="80" />
</clipPath>
<clipPath clipPathUnits="userSpaceOnUse" id="clipPath13_0_">
<rect x="0" y="0" width="179" height="127" />
</clipPath>
<clipPath clipPathUnits="userSpaceOnUse" id="clipPath4_0_">
<rect x="0" y="0" width="153" height="80" />
</clipPath>
<clipPath clipPathUnits="userSpaceOnUse" id="clipPath15_0_">
<rect x="0" y="0" width="220" height="113" />
</clipPath>
<clipPath clipPathUnits="userSpaceOnUse" id="clipPath2_0_">
<rect x="0" y="0" width="170" height="85" />
</clipPath>
<clipPath clipPathUnits="userSpaceOnUse" id="clipPath9_0_">
<rect x="0" y="0" width="145" height="151" />
</clipPath>
<clipPath clipPathUnits="userSpaceOnUse" id="clipPath23_0_">
<rect x="0" y="0" width="189" height="40" />
</clipPath>
<clipPath clipPathUnits="userSpaceOnUse" id="clipPath17_0_">
<rect x="0" y="0" width="300" height="232" />
</clipPath>
<clipPath clipPathUnits="userSpaceOnUse" id="clipPath20_0_">
<rect x="0" y="0" width="190" height="77" />
</clipPath>
<clipPath clipPathUnits="userSpaceOnUse" id="clipPath12_0_">
<rect x="0" y="0" width="170" height="88" />
</clipPath>
<clipPath clipPathUnits="userSpaceOnUse" id="clipPath7_0_">
<rect x="0" y="0" width="203" height="234" />
</clipPath>
<clipPath clipPathUnits="userSpaceOnUse" id="clipPath11_0_">
<rect x="0" y="0" width="189" height="75" />
</clipPath>
<clipPath clipPathUnits="userSpaceOnUse" id="clipPath18_0_">
<rect x="0" y="0" width="183" height="88" />
</clipPath>
<clipPath clipPathUnits="userSpaceOnUse" id="clipPath14_0_">
<rect x="0" y="0" width="208" height="131" />
</clipPath>
<clipPath clipPathUnits="userSpaceOnUse" id="clipPath10_0_">
<rect x="0" y="0" width="152" height="89" />
</clipPath>
<clipPath clipPathUnits="userSpaceOnUse" id="clipPath3_0_">
<rect x="0" y="0" width="141" height="90" />
</clipPath>
<clipPath clipPathUnits="userSpaceOnUse" id="clipPath16_0_">
<rect x="0" y="0" width="223" height="138" />
</clipPath>
</defs>
<g stroke-linecap="butt" >
<path stroke="rgb(0,0,0)" fill="none" stroke-opacity="1.0"  stroke-dasharray="8,8" stroke-width="1" d="M1225 295 L1225 331" />
<path stroke="rgb(0,0,0)" fill="none" stroke-opacity="1.0"  stroke-width="1" d="M1225 367 L1225 331" />
<path stroke-dasharray="none" d="M1219.0 367.0 L1225.0 355.0 L1231.0 367.0 M1219.0 354.4000005722046 L1231.0 354.4000005722046" fill="white" stroke-width="1" stroke-opacity="1.0" stroke="rgb(0,0,0)" />
</g>
<g >
<text x="1226" y="359" fill="rgb(0,0,0)" fill-opacity="1.0" font-size="10" stroke="none">
 administra
</text>
</g>
<g >
<text x="1226" y="356" fill="rgb(0,0,0)" fill-opacity="1.0" font-size="10" stroke="none">
  
</text>
</g>
<g stroke-linecap="butt" >
<path stroke="rgb(0,0,0)" fill="none" stroke-opacity="1.0"  stroke-dasharray="8,8" stroke-width="1" d="M1118 643 L527 640" />
<path stroke-dasharray="none" d="M527.0 634.0 L539.0 640.0 L527.0 646.0" fill="white" stroke-width="1" stroke-opacity="1.0" stroke="rgb(0,0,0)" />
</g>
<g >
<text x="1094" y="654" fill="rgb(0,0,0)" fill-opacity="1.0" font-size="10" stroke="none">
  
</text>
</g>
<g >
<text x="538" y="651" fill="rgb(0,0,0)" fill-opacity="1.0" font-size="10" stroke="none">
 pertenece
</text>
</g>
<g stroke-linecap="butt" >
<path stroke="rgb(0,0,0)" fill="none" stroke-opacity="1.0"  stroke-dasharray="8,8" stroke-width="1" d="M713 354 L713 590" />
<path stroke="rgb(0,0,0)" fill="none" stroke-opacity="1.0"  stroke-width="1" d="M713 590 L1118 590" />
<path stroke-dasharray="none" d="M1118.0 596.0 L1106.0 590.0 L1118.0 584.0" fill="white" stroke-width="1" stroke-opacity="1.0" stroke="rgb(0,0,0)" />
</g>
<g >
<text x="714" y="410" fill="rgb(0,0,0)" fill-opacity="1.0" font-size="10" stroke="none">
  
</text>
</g>
<g >
<text x="986" y="604" fill="rgb(0,0,0)" fill-opacity="1.0" font-size="10" stroke="none">
 reside 
</text>
</g>
<g stroke-linecap="butt" >
<path stroke="rgb(0,0,0)" fill="none" stroke-opacity="1.0"  stroke-dasharray="8,8" stroke-width="1" d="M995 45 L1068 45" />
<path stroke="rgb(0,0,0)" fill="none" stroke-opacity="1.0"  stroke-width="1" d="M1141 45 L1068 45" />
<path stroke-dasharray="none" d="M1141.0 51.0 L1129.0 45.0 L1141.0 39.0 M1128.4000005722046 51.0 L1128.4000005722046 39.0" fill="white" stroke-width="1" stroke-opacity="1.0" stroke="rgb(0,0,0)" />
</g>
<g >
<text x="1006" y="24" fill="rgb(0,0,0)" fill-opacity="1.0" font-size="10" stroke="none">
 interesado
</text>
</g>
<g >
<text x="1118" y="59" fill="rgb(0,0,0)" fill-opacity="1.0" font-size="10" stroke="none">
  
</text>
</g>
<g stroke-linecap="butt" >
<path stroke="rgb(0,0,0)" fill="none" stroke-opacity="1.0"  stroke-dasharray="8,8" stroke-width="1" d="M1118 737 L1041 737" />
<path stroke="rgb(0,0,0)" fill="none" stroke-opacity="1.0"  stroke-width="1" d="M964 737 L1041 737" />
<path stroke-dasharray="none" d="M964.0 731.0 L976.0 737.0 L964.0 743.0 M976.5999994277954 731.0 L976.5999994277954 743.0" fill="white" stroke-width="1" stroke-opacity="1.0" stroke="rgb(0,0,0)" />
</g>
<g >
<text x="1020" y="711" fill="rgb(0,0,0)" fill-opacity="1.0" font-size="10" stroke="none">
 posee
</text>
</g>
<g >
<text x="975" y="751" fill="rgb(0,0,0)" fill-opacity="1.0" font-size="10" stroke="none">
  
</text>
</g>
<g stroke-linecap="butt" >
<path stroke="rgb(0,0,0)" fill="none" stroke-opacity="1.0"  stroke-dasharray="8,8" stroke-width="1" d="M161 738 L161 780" />
<path stroke="rgb(0,0,0)" fill="none" stroke-opacity="1.0"  stroke-width="1" d="M161 822 L161 780" />
<path stroke-dasharray="none" d="M155.0 822.0 L161.0 810.0 L167.0 822.0 M155.0 809.4000005722046 L167.0 809.4000005722046" fill="white" stroke-width="1" stroke-opacity="1.0" stroke="rgb(0,0,0)" />
</g>
<g >
<text x="162" y="785" fill="rgb(0,0,0)" fill-opacity="1.0" font-size="10" stroke="none">
 redacta
</text>
</g>
<g >
<text x="162" y="789" fill="rgb(0,0,0)" fill-opacity="1.0" font-size="10" stroke="none">
  
</text>
</g>
<g stroke-linecap="butt" >
<path stroke="rgb(0,0,0)" fill="none" stroke-opacity="1.0"  stroke-dasharray="8,8" stroke-width="1" d="M612 503 L612 617 L1118 617" />
<path stroke-dasharray="none" d="M618.0 503.0 L612.0 515.0 L606.0 503.0" fill="white" stroke-width="1" stroke-opacity="1.0" stroke="rgb(0,0,0)" />
</g>
<g >
<text x="613" y="558" fill="rgb(0,0,0)" fill-opacity="1.0" font-size="10" stroke="none">
 dispone
</text>
</g>
<g >
<text x="1093" y="631" fill="rgb(0,0,0)" fill-opacity="1.0" font-size="10" stroke="none">
  
</text>
</g>
<g stroke-linecap="butt" >
<path stroke="rgb(0,0,0)" fill="none" stroke-opacity="1.0"  stroke-dasharray="8,8" stroke-width="1" d="M1118 570 L950 570" />
<path stroke="rgb(0,0,0)" fill="none" stroke-opacity="1.0"  stroke-width="1" d="M950 570 L950 454" />
<path stroke-dasharray="none" d="M956.0 454.0 L950.0 466.0 L944.0 454.0 M956.0 466.5999994277954 L944.0 466.5999994277954" fill="white" stroke-width="1" stroke-opacity="1.0" stroke="rgb(0,0,0)" />
</g>
<g >
<text x="1045" y="549" fill="rgb(0,0,0)" fill-opacity="1.0" font-size="10" stroke="none">
  
</text>
</g>
<g >
<text x="951" y="511" fill="rgb(0,0,0)" fill-opacity="1.0" font-size="10" stroke="none">
 representa 
</text>
</g>
<g stroke-linecap="butt" >
<path stroke="rgb(0,0,0)" fill="none" stroke-opacity="1.0"  stroke-dasharray="8,8" stroke-width="1" d="M1156 793 L1156 827" />
<path stroke="rgb(0,0,0)" fill="none" stroke-opacity="1.0"  stroke-width="1" d="M1156 861 L1156 827" />
<path stroke-dasharray="none" d="M1162.0 793.0 L1156.0 805.0 L1150.0 793.0" fill="white" stroke-width="1" stroke-opacity="1.0" stroke="rgb(0,0,0)" />
</g>
<g >
<text x="1157" y="832" fill="rgb(0,0,0)" fill-opacity="1.0" font-size="10" stroke="none">
 representa
</text>
</g>
<g >
<text x="1157" y="868" fill="rgb(0,0,0)" fill-opacity="1.0" font-size="10" stroke="none">
  
</text>
</g>
<g stroke-linecap="butt" >
<path stroke="rgb(0,0,0)" fill="none" stroke-opacity="1.0"  stroke-dasharray="8,8" stroke-width="1" d="M1321 770 L1356 770 L1357 851 L1269 851 L1269 793" />
<path stroke-dasharray="none" d="M1275.0 793.0 L1269.0 805.0 L1263.0 793.0" fill="white" stroke-width="1" stroke-opacity="1.0" stroke="rgb(0,0,0)" />
</g>
<g >
<text x="1357" y="764" fill="rgb(0,0,0)" fill-opacity="1.0" font-size="10" stroke="none">
 representa 
</text>
</g>
<g >
<text x="1270" y="849" fill="rgb(0,0,0)" fill-opacity="1.0" font-size="10" stroke="none">
  
</text>
</g>
<g stroke-linecap="butt" >
<path stroke="rgb(0,0,0)" fill="none" stroke-opacity="1.0"  stroke-dasharray="8,8" stroke-width="1" d="M1226 157 L1226 125" />
<path stroke="rgb(0,0,0)" fill="none" stroke-opacity="1.0"  stroke-width="1" d="M1226 93 L1226 125" />
<path stroke-dasharray="none" d="M1232.0 93.0 L1226.0 105.0 L1220.0 93.0 M1232.0 105.59999942779541 L1220.0 105.59999942779541" fill="white" stroke-width="1" stroke-opacity="1.0" stroke="rgb(0,0,0)" />
</g>
<g >
<text x="1227" y="130" fill="rgb(0,0,0)" fill-opacity="1.0" font-size="10" stroke="none">
 interesa
</text>
</g>
<g >
<text x="1227" y="142" fill="rgb(0,0,0)" fill-opacity="1.0" font-size="10" stroke="none">
  
</text>
</g>
<g stroke-linecap="butt" >
<path stroke="rgb(0,0,0)" fill="none" stroke-opacity="1.0"  stroke-dasharray="8,8" stroke-width="1" d="M1114 194 L1067 194" />
<path stroke="rgb(0,0,0)" fill="none" stroke-opacity="1.0"  stroke-width="1" d="M1020 194 L1067 194" />
<path stroke-dasharray="none" d="M1020.0 188.0 L1032.0 194.0 L1020.0 200.0 M1032.5999994277954 188.0 L1032.5999994277954 200.0" fill="white" stroke-width="1" stroke-opacity="1.0" stroke="rgb(0,0,0)" />
</g>
<g >
<text x="1066" y="173" fill="rgb(0,0,0)" fill-opacity="1.0" font-size="10" stroke="none">
 asiste
</text>
</g>
<g >
<text x="1031" y="208" fill="rgb(0,0,0)" fill-opacity="1.0" font-size="10" stroke="none">
  
</text>
</g>
<g stroke-linecap="butt" >
<path stroke="rgb(0,0,0)" fill="none" stroke-opacity="1.0"  stroke-dasharray="8,8" stroke-width="1" d="M1221 559 L1221 528" />
<path stroke="rgb(0,0,0)" fill="none" stroke-opacity="1.0"  stroke-width="1" d="M1221 498 L1221 528" />
<path stroke-dasharray="none" d="M1227.0 498.0 L1221.0 510.0 L1215.0 498.0 M1227.0 510.5999994277954 L1215.0 510.5999994277954" fill="white" stroke-width="1" stroke-opacity="1.0" stroke="rgb(0,0,0)" />
</g>
<g >
<text x="1222" y="510" fill="rgb(0,0,0)" fill-opacity="1.0" font-size="10" stroke="none">
 pertence
</text>
</g>
<g >
<text x="1222" y="537" fill="rgb(0,0,0)" fill-opacity="1.0" font-size="10" stroke="none">
  
</text>
</g>
<g stroke-linecap="butt" >
<path stroke="rgb(0,0,0)" fill="none" stroke-opacity="1.0"  stroke-dasharray="8,8" stroke-width="1" d="M809 269 L840 269 L841 202 L775 202 L775 227" />
<path stroke-dasharray="none" d="M769.0 227.0 L775.0 215.0 L781.0 227.0" fill="white" stroke-width="1" stroke-opacity="1.0" stroke="rgb(0,0,0)" />
</g>
<g >
<text x="841" y="265" fill="rgb(0,0,0)" fill-opacity="1.0" font-size="10" stroke="none">
 contiene
</text>
</g>
<g >
<text x="776" y="200" fill="rgb(0,0,0)" fill-opacity="1.0" font-size="10" stroke="none">
  
</text>
</g>
<g stroke-linecap="butt" >
<path stroke="rgb(0,0,0)" fill="none" stroke-opacity="1.0"  stroke-dasharray="8,8" stroke-width="1" d="M172 355 L172 327" />
<path stroke="rgb(0,0,0)" fill="none" stroke-opacity="1.0"  stroke-width="1" d="M172 299 L172 327" />
<path stroke-dasharray="none" d="M178.0 299.0 L172.0 311.0 L166.0 299.0 M178.0 311.5999994277954 L166.0 311.5999994277954" fill="white" stroke-width="1" stroke-opacity="1.0" stroke="rgb(0,0,0)" />
</g>
<g >
<text x="173" y="330" fill="rgb(0,0,0)" fill-opacity="1.0" font-size="10" stroke="none">
 beneficiada
</text>
</g>
<g >
<text x="173" y="354" fill="rgb(0,0,0)" fill-opacity="1.0" font-size="10" stroke="none">
  
</text>
</g>
<g stroke-linecap="butt" >
<path stroke="rgb(0,0,0)" fill="none" stroke-opacity="1.0"  stroke-dasharray="8,8" stroke-width="1" d="M949 232 L949 303" />
<path stroke="rgb(0,0,0)" fill="none" stroke-opacity="1.0"  stroke-width="1" d="M949 374 L949 303" />
<path stroke-dasharray="none" d="M943.0 374.0 L949.0 362.0 L955.0 374.0 M943.0 361.4000005722046 L955.0 361.4000005722046" fill="white" stroke-width="1" stroke-opacity="1.0" stroke="rgb(0,0,0)" />
</g>
<g >
<text x="950" y="279" fill="rgb(0,0,0)" fill-opacity="1.0" font-size="10" stroke="none">
  
</text>
</g>
<g >
<text x="950" y="349" fill="rgb(0,0,0)" fill-opacity="1.0" font-size="10" stroke="none">
 representado
</text>
</g>
<g stroke-linecap="butt" >
<path stroke="rgb(0,0,0)" fill="none" stroke-opacity="1.0"  stroke-dasharray="8,8" stroke-width="1" d="M650 354 L650 384" />
<path stroke="rgb(0,0,0)" fill="none" stroke-opacity="1.0"  stroke-width="1" d="M650 415 L650 384" />
<path stroke-dasharray="none" d="M644.0 415.0 L650.0 403.0 L656.0 415.0" fill="white" stroke-width="1" stroke-opacity="1.0" stroke="rgb(0,0,0)" />
</g>
<g >
<text x="651" y="394" fill="rgb(0,0,0)" fill-opacity="1.0" font-size="10" stroke="none">
 aloja
</text>
</g>
<g >
<text x="651" y="390" fill="rgb(0,0,0)" fill-opacity="1.0" font-size="10" stroke="none">
  
</text>
</g>
<g  fill="rgb(164,225,255)" stroke="rgb(0,0,255)" fill-opacity="1.0" stroke-opacity="1.0" clip-path="url(#clipPath22_0_)" transform="translate(333,50)" >
<rect x="0" y="0" width="225" height="268" rx="20" ry="20" />
<text id="0DFE761D-E08FF2BF4B36" x="86" y="13" fill="rgb(0,0,255)" font-weight="bold"  fill-opacity="1.0" font-size="10" stroke="none">
SUBASTA
</text>
<text x="16" y="30" fill="rgb(255,0,0)" fill-opacity="1.0" font-size="10" stroke="none">
*
</text>
<text x="2" y="30" fill="rgb(0,0,255)" fill-opacity="1.0" font-size="10" stroke="none">
P
</text>
<text x="27" y="30" fill="rgb(0,0,0)" fill-opacity="1.0" font-size="10" stroke="none">
id
</text>
<text x="16" y="43" fill="rgb(255,0,0)" fill-opacity="1.0" font-size="10" stroke="none">
*
</text>
<text x="27" y="43" fill="rgb(0,0,0)" fill-opacity="1.0" font-size="10" stroke="none">
nombre
</text>
<text x="16" y="56" fill="rgb(255,0,0)" fill-opacity="1.0" font-size="10" stroke="none">
*
</text>
<text x="27" y="56" fill="rgb(0,0,0)" fill-opacity="1.0" font-size="10" stroke="none">
fecha_hora
</text>
<text x="16" y="69" fill="rgb(255,0,0)" fill-opacity="1.0" font-size="10" stroke="none">
*
</text>
<text x="27" y="69" fill="rgb(0,0,0)" fill-opacity="1.0" font-size="10" stroke="none">
estatus
</text>
<text x="16" y="82" fill="rgb(255,0,0)" fill-opacity="1.0" font-size="10" stroke="none">
*
</text>
<text x="27" y="82" fill="rgb(0,0,0)" fill-opacity="1.0" font-size="10" stroke="none">
duracion
</text>
</g>
<g  fill="rgb(164,225,255)" stroke="rgb(0,0,255)" fill-opacity="1.0" stroke-opacity="1.0" clip-path="url(#clipPath17_0_)" transform="translate(289,742)" >
<rect x="0" y="0" width="299" height="231" rx="20" ry="20" />
<text id="6F58C64C-ACC2852CA2E6" x="130" y="13" fill="rgb(0,0,255)" font-weight="bold"  fill-opacity="1.0" font-size="10" stroke="none">
OBJETO
</text>
<text x="16" y="30" fill="rgb(255,0,0)" fill-opacity="1.0" font-size="10" stroke="none">
*
</text>
<text x="2" y="30" fill="rgb(0,0,255)" fill-opacity="1.0" font-size="10" stroke="none">
P
</text>
<text x="27" y="30" fill="rgb(0,0,0)" fill-opacity="1.0" font-size="10" stroke="none">
id
</text>
<text x="16" y="43" fill="rgb(255,0,0)" fill-opacity="1.0" font-size="10" stroke="none">
*
</text>
<text x="27" y="43" fill="rgb(0,0,0)" fill-opacity="1.0" font-size="10" stroke="none">
nombre
</text>
</g>
<g  fill="rgb(164,225,255)" stroke="rgb(0,0,255)" fill-opacity="1.0" stroke-opacity="1.0" clip-path="url(#clipPath11_0_)" transform="translate(806,7)" >
<rect x="0" y="0" width="188" height="74" rx="20" ry="20" />
<text id="9875AE5B-AFC3D5CD13D2" x="72" y="13" fill="rgb(0,0,255)" font-weight="bold"  fill-opacity="1.0" font-size="10" stroke="none">
INTERES
</text>
<text x="16" y="30" fill="rgb(255,0,0)" fill-opacity="1.0" font-size="10" stroke="none">
*
</text>
<text x="2" y="30" fill="rgb(0,0,255)" fill-opacity="1.0" font-size="10" stroke="none">
P
</text>
<text x="27" y="30" fill="rgb(0,0,0)" fill-opacity="1.0" font-size="10" stroke="none">
id
</text>
<text x="16" y="43" fill="rgb(255,0,0)" fill-opacity="1.0" font-size="10" stroke="none">
*
</text>
<text x="27" y="43" fill="rgb(0,0,0)" fill-opacity="1.0" font-size="10" stroke="none">
nombre
</text>
</g>
<g  fill="rgb(164,225,255)" stroke="rgb(0,0,255)" fill-opacity="1.0" stroke-opacity="1.0" clip-path="url(#clipPath15_0_)" transform="translate(744,681)" >
<rect x="0" y="0" width="219" height="112" rx="20" ry="20" />
<text id="4A557823-AB3D332CB618" x="88" y="13" fill="rgb(0,0,255)" font-weight="bold"  fill-opacity="1.0" font-size="10" stroke="none">
OBJ_COL
</text>
<text x="16" y="30" fill="rgb(255,0,0)" fill-opacity="1.0" font-size="10" stroke="none">
o
</text>
<text x="27" y="30" fill="rgb(0,0,0)" fill-opacity="1.0" font-size="10" stroke="none">
significado
</text>
</g>
<g  fill="rgb(164,225,255)" stroke="rgb(0,0,255)" fill-opacity="1.0" stroke-opacity="1.0" clip-path="url(#clipPath10_0_)" transform="translate(86,649)" >
<rect x="0" y="0" width="151" height="88" rx="20" ry="20" />
<text id="DB3BCBC5-34E8BB81A8F0" x="56" y="13" fill="rgb(0,0,255)" font-weight="bold"  fill-opacity="1.0" font-size="10" stroke="none">
EDITOR
</text>
<text x="16" y="30" fill="rgb(255,0,0)" fill-opacity="1.0" font-size="10" stroke="none">
*
</text>
<text x="2" y="30" fill="rgb(0,0,255)" fill-opacity="1.0" font-size="10" stroke="none">
P
</text>
<text x="27" y="30" fill="rgb(0,0,0)" fill-opacity="1.0" font-size="10" stroke="none">
id
</text>
<text x="16" y="43" fill="rgb(255,0,0)" fill-opacity="1.0" font-size="10" stroke="none">
*
</text>
<text x="27" y="43" fill="rgb(0,0,0)" fill-opacity="1.0" font-size="10" stroke="none">
nombre
</text>
<text x="16" y="56" fill="rgb(255,0,0)" fill-opacity="1.0" font-size="10" stroke="none">
*
</text>
<text x="27" y="56" fill="rgb(0,0,0)" fill-opacity="1.0" font-size="10" stroke="none">
apellido
</text>
</g>
<g  fill="rgb(164,225,255)" stroke="rgb(0,0,255)" fill-opacity="1.0" stroke-opacity="1.0" clip-path="url(#clipPath4_0_)" transform="translate(875,374)" >
<rect x="0" y="0" width="152" height="79" rx="20" ry="20" />
<text id="4284E23F-EAC590620E2C" x="39" y="13" fill="rgb(0,0,255)" font-weight="bold"  fill-opacity="1.0" font-size="10" stroke="none">
CLU_SUB_COL
</text>
</g>
<g  fill="rgb(164,225,255)" stroke="rgb(0,0,255)" fill-opacity="1.0" stroke-opacity="1.0" clip-path="url(#clipPath1_0_)" transform="translate(705,827)" >
<rect x="0" y="0" width="143" height="82" rx="20" ry="20" />
<text id="014EDAD3-B086E1DA28BB" x="23" y="13" fill="rgb(0,0,255)" font-weight="bold"  fill-opacity="1.0" font-size="10" stroke="none">
CARACTERISTICA
</text>
<text x="16" y="30" fill="rgb(255,0,0)" fill-opacity="1.0" font-size="10" stroke="none">
*
</text>
<text x="27" y="30" fill="rgb(0,0,0)" fill-opacity="1.0" font-size="10" stroke="none">
nombre
</text>
</g>
<g  fill="rgb(164,225,255)" stroke="rgb(0,0,255)" fill-opacity="1.0" stroke-opacity="1.0" clip-path="url(#clipPath19_0_)" transform="translate(94,355)" >
<rect x="0" y="0" width="155" height="90" rx="20" ry="20" />
<text id="15DF1B67-355330B88C7A" x="35" y="13" fill="rgb(0,0,255)" font-weight="bold"  fill-opacity="1.0" font-size="10" stroke="none">
ORGANIZACION
</text>
<text x="16" y="30" fill="rgb(255,0,0)" fill-opacity="1.0" font-size="10" stroke="none">
*
</text>
<text x="2" y="30" fill="rgb(0,0,255)" fill-opacity="1.0" font-size="10" stroke="none">
P
</text>
<text x="27" y="30" fill="rgb(0,0,0)" fill-opacity="1.0" font-size="10" stroke="none">
id
</text>
<text x="16" y="43" fill="rgb(255,0,0)" fill-opacity="1.0" font-size="10" stroke="none">
*
</text>
<text x="27" y="43" fill="rgb(0,0,0)" fill-opacity="1.0" font-size="10" stroke="none">
nombre
</text>
<text x="16" y="56" fill="rgb(255,0,0)" fill-opacity="1.0" font-size="10" stroke="none">
o
</text>
<text x="27" y="56" fill="rgb(0,0,0)" fill-opacity="1.0" font-size="10" stroke="none">
mision
</text>
</g>
<g  fill="rgb(164,225,255)" stroke="rgb(0,0,255)" fill-opacity="1.0" stroke-opacity="1.0" clip-path="url(#clipPath14_0_)" transform="translate(1121,367)" >
<rect x="0" y="0" width="207" height="130" rx="20" ry="20" />
<text id="D322DE48-E66F1FBCC71E" x="72" y="13" fill="rgb(0,0,255)" font-weight="bold"  fill-opacity="1.0" font-size="10" stroke="none">
MEMBRESIA
</text>
<text x="16" y="30" fill="rgb(255,0,0)" fill-opacity="1.0" font-size="10" stroke="none">
*
</text>
<text x="27" y="30" fill="rgb(0,0,0)" fill-opacity="1.0" font-size="10" stroke="none">
rol
</text>
<text x="16" y="43" fill="rgb(255,0,0)" fill-opacity="1.0" font-size="10" stroke="none">
*
</text>
<text x="2" y="43" fill="rgb(0,0,255)" fill-opacity="1.0" font-size="10" stroke="none">
P
</text>
<text x="27" y="43" fill="rgb(0,0,0)" fill-opacity="1.0" font-size="10" stroke="none">
fecha_ingreso
</text>
<text x="16" y="56" fill="rgb(255,0,0)" fill-opacity="1.0" font-size="10" stroke="none">
o
</text>
<text x="27" y="56" fill="rgb(0,0,0)" fill-opacity="1.0" font-size="10" stroke="none">
fecha_retiro
</text>
</g>
<g  fill="rgb(164,225,255)" stroke="rgb(0,0,255)" fill-opacity="1.0" stroke-opacity="1.0" clip-path="url(#clipPath7_0_)" transform="translate(1118,559)" >
<rect x="0" y="0" width="202" height="233" rx="20" ry="20" />
<text id="963A5D07-BBEECF8E97FE" x="58" y="13" fill="rgb(0,0,255)" font-weight="bold"  fill-opacity="1.0" font-size="10" stroke="none">
COLECCIONISTA
</text>
<text x="16" y="30" fill="rgb(255,0,0)" fill-opacity="1.0" font-size="10" stroke="none">
*
</text>
<text x="2" y="30" fill="rgb(0,0,255)" fill-opacity="1.0" font-size="10" stroke="none">
P
</text>
<text x="27" y="30" fill="rgb(0,0,0)" fill-opacity="1.0" font-size="10" stroke="none">
cedula
</text>
<text x="16" y="43" fill="rgb(255,0,0)" fill-opacity="1.0" font-size="10" stroke="none">
*
</text>
<text x="27" y="43" fill="rgb(0,0,0)" fill-opacity="1.0" font-size="10" stroke="none">
primer_nombre
</text>
<text x="16" y="56" fill="rgb(255,0,0)" fill-opacity="1.0" font-size="10" stroke="none">
o
</text>
<text x="27" y="56" fill="rgb(0,0,0)" fill-opacity="1.0" font-size="10" stroke="none">
segundo_nombre
</text>
<text x="16" y="69" fill="rgb(255,0,0)" fill-opacity="1.0" font-size="10" stroke="none">
*
</text>
<text x="27" y="69" fill="rgb(0,0,0)" fill-opacity="1.0" font-size="10" stroke="none">
primer_apellido
</text>
<text x="16" y="82" fill="rgb(255,0,0)" fill-opacity="1.0" font-size="10" stroke="none">
o
</text>
<text x="27" y="82" fill="rgb(0,0,0)" fill-opacity="1.0" font-size="10" stroke="none">
segundo_apellido
</text>
<text x="16" y="95" fill="rgb(255,0,0)" fill-opacity="1.0" font-size="10" stroke="none">
*
</text>
<text x="27" y="95" fill="rgb(0,0,0)" fill-opacity="1.0" font-size="10" stroke="none">
nacionalidad
</text>
<text x="16" y="108" fill="rgb(255,0,0)" fill-opacity="1.0" font-size="10" stroke="none">
*
</text>
<text x="27" y="108" fill="rgb(0,0,0)" fill-opacity="1.0" font-size="10" stroke="none">
edad
</text>
<text x="16" y="121" fill="rgb(255,0,0)" fill-opacity="1.0" font-size="10" stroke="none">
*
</text>
<text x="27" y="121" fill="rgb(0,0,0)" fill-opacity="1.0" font-size="10" stroke="none">
telefono
</text>
<text x="16" y="134" fill="rgb(255,0,0)" fill-opacity="1.0" font-size="10" stroke="none">
*
</text>
<text x="27" y="134" fill="rgb(0,0,0)" fill-opacity="1.0" font-size="10" stroke="none">
email
</text>
</g>
<g  fill="rgb(164,225,255)" stroke="rgb(0,0,255)" fill-opacity="1.0" stroke-opacity="1.0" clip-path="url(#clipPath13_0_)" transform="translate(630,227)" >
<rect x="0" y="0" width="178" height="126" rx="20" ry="20" />
<text id="4086CAF4-DF50400E9810" x="70" y="13" fill="rgb(0,0,255)" font-weight="bold"  fill-opacity="1.0" font-size="10" stroke="none">
LUGAR
</text>
<text x="16" y="30" fill="rgb(255,0,0)" fill-opacity="1.0" font-size="10" stroke="none">
*
</text>
<text x="2" y="30" fill="rgb(0,0,255)" fill-opacity="1.0" font-size="10" stroke="none">
P
</text>
<text x="27" y="30" fill="rgb(0,0,0)" fill-opacity="1.0" font-size="10" stroke="none">
id
</text>
<text x="16" y="43" fill="rgb(255,0,0)" fill-opacity="1.0" font-size="10" stroke="none">
*
</text>
<text x="27" y="43" fill="rgb(0,0,0)" fill-opacity="1.0" font-size="10" stroke="none">
nombre
</text>
<text x="16" y="56" fill="rgb(255,0,0)" fill-opacity="1.0" font-size="10" stroke="none">
*
</text>
<text x="27" y="56" fill="rgb(0,0,0)" fill-opacity="1.0" font-size="10" stroke="none">
tipo
</text>
</g>
<g  fill="rgb(164,225,255)" stroke="rgb(0,0,255)" fill-opacity="1.0" stroke-opacity="1.0" clip-path="url(#clipPath5_0_)" transform="translate(1114,157)" >
<rect x="0" y="0" width="221" height="137" rx="20" ry="20" />
<text id="14F65BAB-1F4D14457BC1" x="97" y="13" fill="rgb(0,0,255)" font-weight="bold"  fill-opacity="1.0" font-size="10" stroke="none">
CLUB
</text>
<text x="16" y="30" fill="rgb(255,0,0)" fill-opacity="1.0" font-size="10" stroke="none">
*
</text>
<text x="2" y="30" fill="rgb(0,0,255)" fill-opacity="1.0" font-size="10" stroke="none">
P
</text>
<text x="27" y="30" fill="rgb(0,0,0)" fill-opacity="1.0" font-size="10" stroke="none">
id
</text>
<text x="16" y="43" fill="rgb(255,0,0)" fill-opacity="1.0" font-size="10" stroke="none">
*
</text>
<text x="27" y="43" fill="rgb(0,0,0)" fill-opacity="1.0" font-size="10" stroke="none">
fecha_fundacion
</text>
<text x="16" y="56" fill="rgb(255,0,0)" fill-opacity="1.0" font-size="10" stroke="none">
*
</text>
<text x="27" y="56" fill="rgb(0,0,0)" fill-opacity="1.0" font-size="10" stroke="none">
telefono
</text>
<text x="16" y="69" fill="rgb(255,0,0)" fill-opacity="1.0" font-size="10" stroke="none">
*
</text>
<text x="27" y="69" fill="rgb(0,0,0)" fill-opacity="1.0" font-size="10" stroke="none">
email
</text>
<text x="16" y="82" fill="rgb(255,0,0)" fill-opacity="1.0" font-size="10" stroke="none">
o
</text>
<text x="27" y="82" fill="rgb(0,0,0)" fill-opacity="1.0" font-size="10" stroke="none">
pagina_web
</text>
<text x="16" y="95" fill="rgb(255,0,0)" fill-opacity="1.0" font-size="10" stroke="none">
*
</text>
<text x="27" y="95" fill="rgb(0,0,0)" fill-opacity="1.0" font-size="10" stroke="none">
red_social
</text>
</g>
<g  fill="rgb(164,225,255)" stroke="rgb(0,0,255)" fill-opacity="1.0" stroke-opacity="1.0" clip-path="url(#clipPath21_0_)" transform="translate(1025,861)" >
<rect x="0" y="0" width="169" height="101" rx="20" ry="20" />
<text id="2A914567-51C93DBCECBF" x="38" y="13" fill="rgb(0,0,255)" font-weight="bold"  fill-opacity="1.0" font-size="10" stroke="none">
REPRESENTANTE
</text>
<text x="16" y="30" fill="rgb(255,0,0)" fill-opacity="1.0" font-size="10" stroke="none">
*
</text>
<text x="2" y="30" fill="rgb(0,0,255)" fill-opacity="1.0" font-size="10" stroke="none">
P
</text>
<text x="27" y="30" fill="rgb(0,0,0)" fill-opacity="1.0" font-size="10" stroke="none">
cedula
</text>
<text x="16" y="43" fill="rgb(255,0,0)" fill-opacity="1.0" font-size="10" stroke="none">
*
</text>
<text x="27" y="43" fill="rgb(0,0,0)" fill-opacity="1.0" font-size="10" stroke="none">
nombre
</text>
<text x="16" y="56" fill="rgb(255,0,0)" fill-opacity="1.0" font-size="10" stroke="none">
*
</text>
<text x="27" y="56" fill="rgb(0,0,0)" fill-opacity="1.0" font-size="10" stroke="none">
apellido
</text>
</g>
<g  fill="rgb(164,225,255)" stroke="rgb(0,0,255)" fill-opacity="1.0" stroke-opacity="1.0" clip-path="url(#clipPath12_0_)" transform="translate(500,415)" >
<rect x="0" y="0" width="169" height="87" rx="20" ry="20" />
<text id="899C925A-9BE2512110A1" x="67" y="13" fill="rgb(0,0,255)" font-weight="bold"  fill-opacity="1.0" font-size="10" stroke="none">
LOCAL
</text>
<text x="16" y="30" fill="rgb(255,0,0)" fill-opacity="1.0" font-size="10" stroke="none">
*
</text>
<text x="2" y="30" fill="rgb(0,0,255)" fill-opacity="1.0" font-size="10" stroke="none">
P
</text>
<text x="27" y="30" fill="rgb(0,0,0)" fill-opacity="1.0" font-size="10" stroke="none">
id 
</text>
<text x="16" y="43" fill="rgb(255,0,0)" fill-opacity="1.0" font-size="10" stroke="none">
*
</text>
<text x="27" y="43" fill="rgb(0,0,0)" fill-opacity="1.0" font-size="10" stroke="none">
nombre
</text>
<text x="16" y="56" fill="rgb(255,0,0)" fill-opacity="1.0" font-size="10" stroke="none">
*
</text>
<text x="27" y="56" fill="rgb(0,0,0)" fill-opacity="1.0" font-size="10" stroke="none">
alquilado
</text>
</g>
<g  fill="rgb(164,225,255)" stroke="rgb(0,0,255)" fill-opacity="1.0" stroke-opacity="1.0" clip-path="url(#clipPath2_0_)" transform="translate(1141,8)" >
<rect x="0" y="0" width="169" height="84" rx="20" ry="20" />
<text id="6259D9BC-D32A009740F5" x="63" y="13" fill="rgb(0,0,255)" font-weight="bold"  fill-opacity="1.0" font-size="10" stroke="none">
CLU_INT
</text>
</g>
<g  fill="rgb(164,225,255)" stroke="rgb(0,0,255)" fill-opacity="1.0" stroke-opacity="1.0" clip-path="url(#clipPath16_0_)" transform="translate(304,522)" >
<rect x="0" y="0" width="222" height="137" rx="20" ry="20" />
<text id="E98B4DDA-A13C352BE64A" x="89" y="13" fill="rgb(0,0,255)" font-weight="bold"  fill-opacity="1.0" font-size="10" stroke="none">
OBJ_SUB
</text>
<text x="16" y="30" fill="rgb(255,0,0)" fill-opacity="1.0" font-size="10" stroke="none">
*
</text>
<text x="27" y="30" fill="rgb(0,0,0)" fill-opacity="1.0" font-size="10" stroke="none">
orden
</text>
<text x="16" y="43" fill="rgb(255,0,0)" fill-opacity="1.0" font-size="10" stroke="none">
*
</text>
<text x="27" y="43" fill="rgb(0,0,0)" fill-opacity="1.0" font-size="10" stroke="none">
precio_base_dolar
</text>
<text x="16" y="56" fill="rgb(255,0,0)" fill-opacity="1.0" font-size="10" stroke="none">
o
</text>
<text x="27" y="56" fill="rgb(0,0,0)" fill-opacity="1.0" font-size="10" stroke="none">
precio_vendido_dolar
</text>
<text x="16" y="69" fill="rgb(255,0,0)" fill-opacity="1.0" font-size="10" stroke="none">
o
</text>
<text x="27" y="69" fill="rgb(0,0,0)" fill-opacity="1.0" font-size="10" stroke="none">
fecha_hora_compra
</text>
</g>
<g  fill="rgb(164,225,255)" stroke="rgb(0,0,255)" fill-opacity="1.0" stroke-opacity="1.0" clip-path="url(#clipPath3_0_)" transform="translate(879,142)" >
<rect x="0" y="0" width="140" height="89" rx="20" ry="20" />
<text id="E8DA7A93-F56FCA81882A" x="46" y="13" fill="rgb(0,0,255)" font-weight="bold"  fill-opacity="1.0" font-size="10" stroke="none">
CLU_SUB
</text>
<text x="16" y="30" fill="rgb(255,0,0)" fill-opacity="1.0" font-size="10" stroke="none">
*
</text>
<text x="27" y="30" fill="rgb(0,0,0)" fill-opacity="1.0" font-size="10" stroke="none">
rol
</text>
</g>
<g  fill="rgb(164,225,255)" stroke="rgb(0,0,255)" fill-opacity="1.0" stroke-opacity="1.0" clip-path="url(#clipPath18_0_)" transform="translate(87,211)" >
<rect x="0" y="0" width="182" height="87" rx="20" ry="20" />
<text id="CD556F89-56BD46C47ABD" x="66" y="13" fill="rgb(0,0,255)" font-weight="bold"  fill-opacity="1.0" font-size="10" stroke="none">
ORG_PRE
</text>
<text x="16" y="30" fill="rgb(255,0,0)" fill-opacity="1.0" font-size="10" stroke="none">
*
</text>
<text x="27" y="30" fill="rgb(0,0,0)" fill-opacity="1.0" font-size="10" stroke="none">
porcentaje
</text>
</g>
<g  fill="rgb(164,225,255)" stroke="rgb(0,0,255)" fill-opacity="1.0" stroke-opacity="1.0" clip-path="url(#clipPath23_0_)" transform="translate(348,169)" >
<rect x="0" y="0" width="188" height="39" rx="20" ry="20" />
<text id="66243537-C7DD2ED55E5F" x="69" y="13" fill="rgb(0,0,255)" font-weight="bold"  fill-opacity="1.0" font-size="10" stroke="none">
VIRTUAL
</text>
</g>
<g  fill="rgb(164,225,255)" stroke="rgb(0,0,255)" fill-opacity="1.0" stroke-opacity="1.0" clip-path="url(#clipPath20_0_)" transform="translate(349,219)" >
<rect x="0" y="0" width="189" height="76" rx="20" ry="20" />
<text id="7590A812-3B98C26FF853" x="61" y="13" fill="rgb(0,0,255)" font-weight="bold"  fill-opacity="1.0" font-size="10" stroke="none">
PRESENCIAL
</text>
<text x="16" y="30" fill="rgb(255,0,0)" fill-opacity="1.0" font-size="10" stroke="none">
*
</text>
<text x="27" y="30" fill="rgb(0,0,0)" fill-opacity="1.0" font-size="10" stroke="none">
tipo
</text>
</g>
<g  fill="rgb(164,225,255)" stroke="rgb(0,0,255)" fill-opacity="1.0" stroke-opacity="1.0" clip-path="url(#clipPath8_0_)" transform="translate(91,822)" >
<rect x="0" y="0" width="139" height="79" rx="20" ry="20" />
<text id="2FBE1BEE-4DA1D368ED99" x="47" y="13" fill="rgb(0,0,255)" font-weight="bold"  fill-opacity="1.0" font-size="10" stroke="none">
COM_EDI
</text>
</g>
<g  fill="rgb(164,225,255)" stroke="rgb(0,0,255)" fill-opacity="1.0" stroke-opacity="1.0" clip-path="url(#clipPath9_0_)" transform="translate(303,812)" >
<rect x="0" y="0" width="144" height="150" rx="20" ry="20" />
<text id="65CBA527-105AD61612A3" x="55" y="13" fill="rgb(0,0,255)" font-weight="bold"  fill-opacity="1.0" font-size="10" stroke="none">
COMIC
</text>
<text x="16" y="30" fill="rgb(255,0,0)" fill-opacity="1.0" font-size="10" stroke="none">
*
</text>
<text x="27" y="30" fill="rgb(0,0,0)" fill-opacity="1.0" font-size="10" stroke="none">
volumen
</text>
<text x="16" y="43" fill="rgb(255,0,0)" fill-opacity="1.0" font-size="10" stroke="none">
*
</text>
<text x="27" y="43" fill="rgb(0,0,0)" fill-opacity="1.0" font-size="10" stroke="none">
numero
</text>
<text x="16" y="56" fill="rgb(255,0,0)" fill-opacity="1.0" font-size="10" stroke="none">
*
</text>
<text x="27" y="56" fill="rgb(0,0,0)" fill-opacity="1.0" font-size="10" stroke="none">
fecha_publicacion
</text>
<text x="16" y="69" fill="rgb(255,0,0)" fill-opacity="1.0" font-size="10" stroke="none">
*
</text>
<text x="27" y="69" fill="rgb(0,0,0)" fill-opacity="1.0" font-size="10" stroke="none">
precio_publicacion
</text>
<text x="16" y="82" fill="rgb(255,0,0)" fill-opacity="1.0" font-size="10" stroke="none">
*
</text>
<text x="27" y="82" fill="rgb(0,0,0)" fill-opacity="1.0" font-size="10" stroke="none">
color
</text>
<text x="16" y="95" fill="rgb(255,0,0)" fill-opacity="1.0" font-size="10" stroke="none">
*
</text>
<text x="27" y="95" fill="rgb(0,0,0)" fill-opacity="1.0" font-size="10" stroke="none">
sinopsis
</text>
<text x="16" y="108" fill="rgb(255,0,0)" fill-opacity="1.0" font-size="10" stroke="none">
*
</text>
<text x="27" y="108" fill="rgb(0,0,0)" fill-opacity="1.0" font-size="10" stroke="none">
paginas
</text>
<text x="16" y="121" fill="rgb(255,0,0)" fill-opacity="1.0" font-size="10" stroke="none">
*
</text>
<text x="27" y="121" fill="rgb(0,0,0)" fill-opacity="1.0" font-size="10" stroke="none">
cubierta
</text>
</g>
<g  fill="rgb(164,225,255)" stroke="rgb(0,0,255)" fill-opacity="1.0" stroke-opacity="1.0" clip-path="url(#clipPath6_0_)" transform="translate(456,806)" >
<rect x="0" y="0" width="122" height="56" rx="20" ry="20" />
<text id="21130F45-E6018CF56B2E" x="20" y="13" fill="rgb(0,0,255)" font-weight="bold"  fill-opacity="1.0" font-size="10" stroke="none">
COLECCIONABLE
</text>
</g>
<g stroke-linecap="butt" >
<path stroke="rgb(0,0,0)" fill="none" stroke-opacity="1.0"  stroke-dasharray="8,8" stroke-width="1" d="M430 319 L430 420" />
<path stroke="rgb(0,0,0)" fill="none" stroke-opacity="1.0"  stroke-width="1" d="M430 522 L430 420" />
<path stroke-dasharray="none" d="M424.0 522.0 L430.0 510.0 L436.0 522.0 M424.0 509.4000005722046 L436.0 509.4000005722046" fill="white" stroke-width="1" stroke-opacity="1.0" stroke="rgb(0,0,0)" />
</g>
<g >
<text x="431" y="366" fill="rgb(0,0,0)" fill-opacity="1.0" font-size="10" stroke="none">
  
</text>
</g>
<g >
<text x="431" y="497" fill="rgb(0,0,0)" fill-opacity="1.0" font-size="10" stroke="none">
 subastado
</text>
</g>
<g stroke-linecap="butt" >
<path stroke="rgb(0,0,0)" fill="none" stroke-opacity="1.0"  stroke-dasharray="8,8" stroke-width="1" d="M559 166 L719 166" />
<path stroke="rgb(0,0,0)" fill="none" stroke-opacity="1.0"  stroke-width="1" d="M879 167 L719 166" />
<path stroke-dasharray="none" d="M879.0 172.0 L867.0 166.0 L879.0 160.0 M866.4000005722046 172.0 L866.4000005722046 160.0" fill="white" stroke-width="1" stroke-opacity="1.0" stroke="rgb(0,0,0)" />
</g>
<g >
<text x="570" y="177" fill="rgb(0,0,0)" fill-opacity="1.0" font-size="10" stroke="none">
  
</text>
</g>
<g >
<text x="793" y="178" fill="rgb(0,0,0)" fill-opacity="1.0" font-size="10" stroke="none">
 asisitida
</text>
</g>
<g stroke-linecap="butt" >
<path stroke="rgb(0,0,0)" fill="none" stroke-opacity="1.0"  stroke-dasharray="8,8" stroke-width="1" d="M349 257 L309 257" />
<path stroke="rgb(0,0,0)" fill="none" stroke-opacity="1.0"  stroke-width="1" d="M270 257 L309 257" />
<path stroke-dasharray="none" d="M270.0 251.0 L282.0 257.0 L270.0 263.0 M282.5999994277954 251.0 L282.5999994277954 263.0" fill="white" stroke-width="1" stroke-opacity="1.0" stroke="rgb(0,0,0)" />
</g>
<g >
<text x="326" y="238" fill="rgb(0,0,0)" fill-opacity="1.0" font-size="10" stroke="none">
  
</text>
</g>
<g >
<text x="281" y="271" fill="rgb(0,0,0)" fill-opacity="1.0" font-size="10" stroke="none">
 beneficia
</text>
</g>
<g stroke-linecap="butt" >
<path stroke="rgb(0,0,0)" fill="none" stroke-opacity="1.0"  stroke-dasharray="8,8" stroke-width="1" d="M415 742 L415 701" />
<path stroke="rgb(0,0,0)" fill="none" stroke-opacity="1.0"  stroke-width="1" d="M415 660 L415 701" />
<path stroke-dasharray="none" d="M421.0 660.0 L415.0 672.0 L409.0 660.0 M421.0 672.5999994277954 L409.0 672.5999994277954" fill="white" stroke-width="1" stroke-opacity="1.0" stroke="rgb(0,0,0)" />
</g>
<g >
<text x="416" y="711" fill="rgb(0,0,0)" fill-opacity="1.0" font-size="10" stroke="none">
 subasta
</text>
</g>
<g >
<text x="416" y="713" fill="rgb(0,0,0)" fill-opacity="1.0" font-size="10" stroke="none">
   
</text>
</g>
<g stroke-linecap="butt" >
<path stroke="rgb(0,0,0)" fill="none" stroke-opacity="1.0"  stroke-width="1" d="M303 862 L231 862" />
<path stroke-dasharray="none" d="M231.0 856.0 L243.0 862.0 L231.0 868.0 M243.5999994277954 856.0 L243.5999994277954 868.0" fill="white" stroke-width="1" stroke-opacity="1.0" stroke="rgb(0,0,0)" />
</g>
<g >
<text x="280" y="843" fill="rgb(0,0,0)" fill-opacity="1.0" font-size="10" stroke="none">
  
</text>
</g>
<g >
<text x="242" y="876" fill="rgb(0,0,0)" fill-opacity="1.0" font-size="10" stroke="none">
 redactado
</text>
</g>
<g stroke-linecap="butt" >
<path stroke="rgb(0,0,0)" fill="none" stroke-opacity="1.0"  stroke-width="1" d="M579 845 L705 845" />
<path stroke-dasharray="none" d="M705.0 851.0 L693.0 845.0 L705.0 839.0 M692.4000005722046 851.0 L692.4000005722046 839.0" fill="white" stroke-width="1" stroke-opacity="1.0" stroke="rgb(0,0,0)" />
</g>
<g >
<text x="590" y="826" fill="rgb(0,0,0)" fill-opacity="1.0" font-size="10" stroke="none">
  
</text>
</g>
<g >
<text x="644" y="859" fill="rgb(0,0,0)" fill-opacity="1.0" font-size="10" stroke="none">
 posee
</text>
</g>
<g stroke-linecap="butt" >
<path stroke="rgb(0,0,0)" fill="none" stroke-opacity="1.0"  stroke-width="1" d="M589 768 L744 768" />
<path stroke-dasharray="none" d="M744.0 774.0 L732.0 768.0 L744.0 762.0 M731.4000005722046 774.0 L731.4000005722046 762.0" fill="white" stroke-width="1" stroke-opacity="1.0" stroke="rgb(0,0,0)" />
</g>
<g >
<text x="600" y="749" fill="rgb(0,0,0)" fill-opacity="1.0" font-size="10" stroke="none">
 pertenece
</text>
</g>
<g >
<text x="721" y="782" fill="rgb(0,0,0)" fill-opacity="1.0" font-size="10" stroke="none">
  
</text>
</g>
<g stroke-linecap="butt" >
<path stroke="rgb(0,0,0)" fill="none" stroke-opacity="1.0"  stroke-dasharray="8,8" stroke-width="1" d="M519 415 L519 355" />
<path stroke="rgb(0,0,0)" fill="none" stroke-opacity="1.0"  stroke-width="1" d="M519 296 L519 355" />
<path stroke-dasharray="none" d="M525.0 296.0 L519.0 308.0 L513.0 296.0" fill="white" stroke-width="1" stroke-opacity="1.0" stroke="rgb(0,0,0)" />
</g>
<g >
<text x="520" y="374" fill="rgb(0,0,0)" fill-opacity="1.0" font-size="10" stroke="none">
 ocupa
</text>
</g>
<g >
<text x="520" y="351" fill="rgb(0,0,0)" fill-opacity="1.0" font-size="10" stroke="none">
  
</text>
</g>

</svg>